<?xml version="1.0" encoding="utf-8"?><svg xmlns="http://www.w3.org/2000/svg" height="400" viewBox="-4.8 -4.8 409.6 409.6" width="400" xmlns:openbadges="http://openbadges.org"><openbadges:assertion verify="https://api.eu.badgr.io/public/assertions/iO9C4qEtTEaFQ4dbV026sg"><![CDATA[{
  "@context": "https://w3id.org/openbadges/v2",
  "type": "Assertion",
  "id": "https://api.eu.badgr.io/public/assertions/iO9C4qEtTEaFQ4dbV026sg",
  "badge": "https://api.eu.badgr.io/public/badges/CzCCIS5mR0m2cRIq5eiOIQ",
  "image": "https://api.eu.badgr.io/public/assertions/iO9C4qEtTEaFQ4dbV026sg/image",
  "verification": {
    "type": "HostedBadge"
  },
  "issuedOn": "2023-01-11T21:41:26.407398+00:00",
  "recipient": {
    "hashed": true,
    "type": "email",
    "identity": "sha256$a76af29f09c21f26e58495751621da68b6da8f3c9cac2b17d91f340240d63c50",
    "salt": "7dc0b6c80c7e462d890ed1c652d941b7"
  },
  "extensions:recipientProfile": {
    "@context": "https://openbadgespec.org/extensions/recipientProfile/context.json",
    "type": [
      "Extension",
      "extensions:RecipientProfile"
    ],
    "name": "jorge gonzalez milla"
  }
}]]></openbadges:assertion><linearGradient gradientUnits="userSpaceOnUse" id="gradient-139550143" x1="72.32997949214294" x2="421.57001440434146" y1="72.32997949214291" y2="421.57001440434146"><stop offset="0%" stop-color="hsl(239.12,97.37%,64.18%)"/><stop offset="10%" stop-color="hsl(241.62,90.18%,61.68%)"/><stop offset="25%" stop-color="hsl(245,80.08%,57.48%)"/><stop offset="37%" stop-color="hsl(245.33,84.18%,58.35%)"/><stop offset="50%" stop-color="hsl(245.63,88.46%,59.23%)"/><stop offset="5.01%" stop-color="hsl(244.92,82.03%,54.62%)"/><stop offset="83%" stop-color="hsl(234.22,91.87%,61.41%)"/><stop offset="100%" stop-color="hsl(224.06,98.22%,64.73%)"/></linearGradient><linearGradient gradientUnits="userSpaceOnUse" id="gradient-3357778686" x1="72.32997949214294" x2="421.57001440434146" y1="72.32997949214291" y2="421.57001440434146"><stop offset="0%" stop-color="hsl(34.12,6.24%,57.25%)"/><stop offset="50%" stop-color="hsl(4.71,3.93%,35.92%)"/><stop offset="5.01%" stop-color="hsl(329.71,16.67%,3.76%)"/><stop offset="100%" stop-color="hsl(164.71,11.11%,2.82%)"/></linearGradient><radialGradient gradientUnits="userSpaceOnUse" id="gradient-1951041050" r="246.9499969482422"><stop offset="0%" stop-color="hsla(0,0%,0%,0)"/><stop offset="100%" stop-color="hsla(0,0%,0%,0)"/></radialGradient><linearGradient gradientUnits="userSpaceOnUse" id="gradient-996281860" x1="72.32997949214294" x2="421.57001440434146" y1="72.32997949214291" y2="421.57001440434146"><stop offset="0%" stop-color="hsla(15,100%,50.33%,0)"/><stop offset="100%" stop-color="hsla(15,100%,50.33%,0)"/></linearGradient><linearGradient gradientUnits="userSpaceOnUse" id="gradient-3261858847" x1="3.5147186257614305" x2="20.48528137423857" y1="3.5147186257614287" y2="20.485281374238568"><stop offset="0%" stop-color="hsl(0,0%,99.06%)"/><stop offset="10%" stop-color="hsl(0,0%,96.24%)"/><stop offset="25%" stop-color="hsl(0,0%,91.53%)"/><stop offset="37%" stop-color="hsl(0,0%,93.41%)"/><stop offset="50%" stop-color="hsl(0,0%,95.29%)"/><stop offset="5.01%" stop-color="hsl(0,0%,91.84%)"/><stop offset="83%" stop-color="hsl(0,0%,96.86%)"/><stop offset="100%" stop-color="hsl(0,0%,99.37%)"/></linearGradient><linearGradient gradientUnits="userSpaceOnUse" id="gradient-2233916572" x1="3.5147186257614305" x2="20.48528137423857" y1="3.5147186257614287" y2="20.485281374238568"><stop offset="0%" stop-color="hsl(239.12,91.89%,88.4%)"/><stop offset="10%" stop-color="hsl(241.62,75.63%,84.55%)"/><stop offset="25%" stop-color="hsl(245,61.35%,78.08%)"/><stop offset="37%" stop-color="hsl(245.33,68.5%,79.09%)"/><stop offset="50%" stop-color="hsl(245.63,76.36%,80.1%)"/><stop offset="5.01%" stop-color="hsl(244.92,70.52%,72.34%)"/><stop offset="83%" stop-color="hsl(234.22,80.66%,83.78%)"/><stop offset="100%" stop-color="hsl(224.06,94.11%,89.35%)"/></linearGradient><metadata>{&quot;content&quot;:{&quot;iconName&quot;:&quot;shield-bug-outline&quot;,&quot;shapeName&quot;:&quot;shape-28&quot;},&quot;style&quot;:{&quot;iconFillStyle&quot;:{&quot;baseColor&quot;:&quot;rgb(153,153,153)&quot;,&quot;gradientDef&quot;:&quot;https://colorzilla.com/gradient-editor/#b8e1fc+0,a9d2f3+10,90bae4+25,90bcea+37,90bff0+50,6ba8e5+5.01,a2daf5+83,bdf3fd+100&quot;,&quot;gradientZoom&quot;:1,&quot;options&quot;:{&quot;angle&quot;:135,&quot;type&quot;:&quot;linear&quot;},&quot;strokeWidth&quot;:1},&quot;iconScale&quot;:1.5,&quot;iconStrokeStyle&quot;:{&quot;baseColor&quot;:&quot;rgb(92,92,153)&quot;,&quot;gradientDef&quot;:&quot;https://colorzilla.com/gradient-editor/#b8e1fc+0,a9d2f3+10,90bae4+25,90bcea+37,90bff0+50,6ba8e5+5.01,a2daf5+83,bdf3fd+100&quot;,&quot;gradientZoom&quot;:1,&quot;options&quot;:{&quot;angle&quot;:135,&quot;type&quot;:&quot;linear&quot;},&quot;strokeWidth&quot;:5},&quot;shapeInnerFillStyle&quot;:{&quot;baseColor&quot;:&quot;rgb(0,0,0)&quot;,&quot;gradientDef&quot;:&quot;FF0000+0,FF0000+100&amp;0+0,0+100&quot;,&quot;gradientZoom&quot;:1,&quot;options&quot;:{&quot;angle&quot;:0,&quot;type&quot;:&quot;radial&quot;},&quot;strokeWidth&quot;:1},&quot;shapeInnerStrokeStyle&quot;:{&quot;baseColor&quot;:&quot;rgb(153,96,77)&quot;,&quot;gradientDef&quot;:&quot;FF0000+0,FF0000+100&amp;0+0,0+100&quot;,&quot;gradientZoom&quot;:1,&quot;options&quot;:{&quot;angle&quot;:135,&quot;type&quot;:&quot;linear&quot;},&quot;strokeWidth&quot;:1},&quot;shapeOuterFillStyle&quot;:{&quot;baseColor&quot;:&quot;rgb(31,31,153)&quot;,&quot;gradientDef&quot;:&quot;https://colorzilla.com/gradient-editor/#b8e1fc+0,a9d2f3+10,90bae4+25,90bcea+37,90bff0+50,6ba8e5+5.01,a2daf5+83,bdf3fd+100&quot;,&quot;gradientZoom&quot;:1,&quot;options&quot;:{&quot;angle&quot;:135,&quot;type&quot;:&quot;linear&quot;},&quot;strokeWidth&quot;:1},&quot;shapeOuterStrokeStyle&quot;:{&quot;baseColor&quot;:&quot;rgb(102,89,51)&quot;,&quot;gradientDef&quot;:&quot;https://colorzilla.com/gradient-editor/#aebcbf+0,6e7774+50,0a0e0a+5.01,0a0809+100&quot;,&quot;gradientZoom&quot;:1,&quot;options&quot;:{&quot;angle&quot;:135,&quot;type&quot;:&quot;linear&quot;},&quot;strokeWidth&quot;:0.6}}}</metadata><svg height="400" style="overflow: visible;" viewBox="0 0 493.9 493.9" width="400" x="0" y="0"><path d="M472.4 73.5C405.5 70.2 313.5 53 247.4.8c0 0-.5-.7-.7-.5-.2-.1-.5.4-.5.4C180.1 52.8 88.1 70 21.3 73.3-18.7 427.2 234 491.1 246.2 494c0 0 267-57.9 226.2-420.5z" fill="#9fa0a4" style="fill: url(&quot;#gradient-139550143&quot;); stroke-width: 11.8536px; stroke: url(&quot;#gradient-3357778686&quot;); stroke-linecap: round; stroke-linejoin: round;"/><path d="M246.3 433.8c-19.3-7-56.7-24-91.1-58.9C127.1 346.3 106 311 92.6 270 78.9 228.1 73 179.9 75 126.1c50.6-6.9 114.5-22.3 171.7-56.2 57.2 34 121.3 49.4 172 56.3 2 53.7-4 101.8-17.7 143.7-13.5 41-34.6 76.2-62.7 104.7-34.9 35.3-72.7 52.2-92 59.2z" fill="none" stroke="#fff" stroke-miterlimit="10" stroke-width="18" style="fill: url(&quot;#gradient-1951041050&quot;); stroke-width: 19.756px; stroke: url(&quot;#gradient-996281860&quot;); stroke-linecap: round; stroke-linejoin: miter;"/></svg><svg height="225" id="mdi-shield-bug-outline" style="overflow: visible;" version="1.1" viewBox="0 0 24 24" width="225" x="87.5" y="87.5"><path d="M 9.9 6.6 L 9.1 7.4 L 10.3 8.6 C 9.8 8.9 9.4 9.4 9.2 10 H 7 V 11 H 9 V 12 H 7 V 13 H 9 V 14 H 7 V 15 H 9.2 C 9.6 16.2 10.7 17 12 17 S 14.4 16.2 14.8 15 H 17 V 14 H 15 V 13 H 17 V 12 H 15 V 11 H 17 V 10 H 14.8 C 14.6 9.4 14.2 8.9 13.7 8.5 L 14.9 7.3 L 14.2 6.6 L 12.8 8 H 12 C 11.8 8 11.5 8 11.3 8.1 L 9.9 6.6 Z M 11 11 H 13 V 12 H 11 V 11 Z M 11 13 H 13 V 14 H 11 V 13 Z M 21 11 C 21 16.5 17.2 21.7 12 23 C 6.8 21.7 3 16.5 3 11 V 5 L 12 1 L 21 5 V 11 Z M 12 21 C 15.8 20 19 15.5 19 11.2 V 6.3 L 12 3.2 L 5 6.3 V 11.2 C 5 15.5 8.2 20 12 21 Z" style="fill: url(&quot;#gradient-3261858847&quot;); stroke-width: 4.8px; stroke: url(&quot;#gradient-2233916572&quot;); stroke-linecap: round; stroke-linejoin: round;"/><path d="M 9.9 6.6 L 9.1 7.4 L 10.3 8.6 C 9.8 8.9 9.4 9.4 9.2 10 H 7 V 11 H 9 V 12 H 7 V 13 H 9 V 14 H 7 V 15 H 9.2 C 9.6 16.2 10.7 17 12 17 S 14.4 16.2 14.8 15 H 17 V 14 H 15 V 13 H 17 V 12 H 15 V 11 H 17 V 10 H 14.8 C 14.6 9.4 14.2 8.9 13.7 8.5 L 14.9 7.3 L 14.2 6.6 L 12.8 8 H 12 C 11.8 8 11.5 8 11.3 8.1 L 9.9 6.6 Z M 11 11 H 13 V 12 H 11 V 11 Z M 11 13 H 13 V 14 H 11 V 13 Z M 21 11 C 21 16.5 17.2 21.7 12 23 C 6.8 21.7 3 16.5 3 11 V 5 L 12 1 L 21 5 V 11 Z M 12 21 C 15.8 20 19 15.5 19 11.2 V 6.3 L 12 3.2 L 5 6.3 V 11.2 C 5 15.5 8.2 20 12 21 Z" style="fill: url(&quot;#gradient-3261858847&quot;);"/></svg></svg>